<svg width="20" height="18" viewBox="0 0 20 18" fill="none" xmlns="http://www.w3.org/2000/svg">
<path d="M17.9375 4.92638C17.9502 5.10403 17.9502 5.28173 17.9502 5.45938C17.9502 10.8781 13.8258 17.1218 6.28776 17.1218C3.96542 17.1218 1.80807 16.4492 -0.00665283 15.2817C0.323308 15.3198 0.640535 15.3325 0.983191 15.3325C2.8994 15.3325 4.66339 14.6853 6.07202 13.5812C4.26999 13.5431 2.75983 12.3629 2.23952 10.7386C2.49335 10.7766 2.74714 10.802 3.01366 10.802C3.38167 10.802 3.74971 10.7512 4.09233 10.6624C2.21417 10.2817 0.805496 8.63196 0.805496 6.63958V6.58884C1.35116 6.89341 1.98573 7.08376 2.65827 7.10911C1.55421 6.37306 0.830886 5.11673 0.830886 3.6954C0.830886 2.93399 1.03389 2.23603 1.38925 1.62688C3.40702 4.11419 6.44003 5.73853 9.841 5.91622C9.77757 5.61165 9.73948 5.29442 9.73948 4.97716C9.73948 2.71825 11.5669 0.878174 13.8385 0.878174C15.0187 0.878174 16.0846 1.3731 16.8334 2.17259C17.7598 1.99493 18.6481 1.65228 19.4349 1.18274C19.1303 2.13454 18.4831 2.93403 17.6329 3.44161C18.4578 3.35282 19.2573 3.12435 19.9933 2.80712C19.435 3.61927 18.737 4.34259 17.9375 4.92638Z" fill="#18B5DC"/>
</svg>
