<svg width="20" height="18" viewBox="0 0 20 18" fill="none" xmlns="http://www.w3.org/2000/svg">
<path d="M17.9374 4.92638C17.9501 5.10404 17.9501 5.28174 17.9501 5.45939C17.9501 10.8781 13.8258 17.1218 6.2877 17.1218C3.96536 17.1218 1.80801 16.4492 -0.00671387 15.2817C0.323247 15.3198 0.640474 15.3325 0.98313 15.3325C2.89934 15.3325 4.66333 14.6853 6.07196 13.5812C4.26993 13.5431 2.75977 12.3629 2.23946 10.7386C2.49329 10.7766 2.74708 10.802 3.0136 10.802C3.38161 10.802 3.74965 10.7512 4.09227 10.6624C2.21411 10.2817 0.805435 8.63197 0.805435 6.63959V6.58885C1.3511 6.89342 1.98567 7.08377 2.65821 7.10912C1.55415 6.37306 0.830825 5.11674 0.830825 3.69541C0.830825 2.934 1.03383 2.23603 1.38918 1.62689C3.40696 4.1142 6.43997 5.73853 9.84094 5.91623C9.7775 5.61166 9.73942 5.29443 9.73942 4.97717C9.73942 2.71826 11.5668 0.878181 13.8384 0.878181C15.0186 0.878181 16.0846 1.3731 16.8333 2.1726C17.7597 1.99494 18.648 1.65228 19.4348 1.18275C19.1302 2.13455 18.4831 2.93404 17.6328 3.44162C18.4577 3.35283 19.2572 3.12435 19.9932 2.80713C19.4349 3.61928 18.7369 4.3426 17.9374 4.92638Z" fill="white"/>
</svg>
