<svg width="20" height="20" viewBox="0 0 20 20" fill="none" xmlns="http://www.w3.org/2000/svg">
<path d="M9.99776 15.1277C7.15943 15.1277 4.87002 12.8383 4.87002 10C4.87002 7.16166 7.15943 4.87225 9.99776 4.87225C12.8361 4.87225 15.1255 7.16166 15.1255 10C15.1255 12.8383 12.8361 15.1277 9.99776 15.1277ZM9.99776 6.6663C8.16356 6.6663 6.66406 8.16133 6.66406 10C6.66406 11.8387 8.15909 13.3337 9.99776 13.3337C11.8364 13.3337 13.3315 11.8387 13.3315 10C13.3315 8.16133 11.832 6.6663 9.99776 6.6663ZM16.5313 15.3375C16.5313 14.6725 15.9958 14.1415 15.3353 14.1415C14.6703 14.1415 14.1392 14.677 14.1392 15.3375C14.1392 15.998 14.6748 16.5335 15.3353 16.5335C15.9958 16.5335 16.5313 15.998 16.5313 15.3375ZM19.9275 14.1236C19.8516 15.7258 19.4857 17.1449 18.3119 18.3142C17.1427 19.4834 15.7235 19.8494 14.1214 19.9297C12.4702 20.0234 7.52092 20.0234 5.86968 19.9297C4.272 19.8538 2.85284 19.4879 1.67912 18.3186C0.505407 17.1494 0.143921 15.7302 0.0635904 14.1281C-0.0301283 12.4768 -0.0301283 7.52761 0.0635904 5.87638C0.139458 4.27424 0.505407 2.85507 1.67912 1.68582C2.85284 0.516567 4.26754 0.15062 5.86968 0.0702896C7.52092 -0.0234299 12.4702 -0.0234299 14.1214 0.0702896C15.7235 0.146156 17.1427 0.512104 18.3119 1.68582C19.4812 2.85507 19.8471 4.27424 19.9275 5.87638C20.0212 7.52761 20.0212 12.4724 19.9275 14.1236ZM17.7943 4.10465C17.4462 3.22995 16.7723 2.55606 15.8931 2.2035C14.5766 1.68136 11.4526 1.80185 9.99776 1.80185C8.54289 1.80185 5.41448 1.68582 4.10242 2.2035C3.22771 2.5516 2.55383 3.22548 2.20127 4.10465C1.67912 5.42118 1.79962 8.54513 1.79962 10C1.79962 11.4549 1.68358 14.5833 2.20127 15.8953C2.54937 16.7701 3.22325 17.4439 4.10242 17.7965C5.41894 18.3186 8.54289 18.1981 9.99776 18.1981C11.4526 18.1981 14.5811 18.3142 15.8931 17.7965C16.7678 17.4484 17.4417 16.7745 17.7943 15.8953C18.3164 14.5788 18.1959 11.4549 18.1959 10C18.1959 8.54513 18.3164 5.41671 17.7943 4.10465Z" fill="#18B5DC"/>
</svg>
